<?xml version="1.0" standalone="no"?><!DOCTYPE svg PUBLIC "-//W3C//DTD SVG 1.1//EN" "http://www.w3.org/Graphics/SVG/1.1/DTD/svg11.dtd"><svg t="1756202190410" class="icon" viewBox="0 0 1024 1024" version="1.1" xmlns="http://www.w3.org/2000/svg" p-id="10556" width="128" height="128" xmlns:xlink="http://www.w3.org/1999/xlink"><path d="M1018.824298 651.869033c-16.874715-149.040073-72.600517-287.330834-156.871715-389.41518a17.062401 17.062401 0 1 0-26.327285 21.720437c181.356261 219.644289 183.557311 554.340348 105.428576 679.339498a17.062401 17.062401 0 0 0 28.937832 18.086145c45.676048-73.095326 63.949879-196.371174 48.832592-329.7309M861.833146 946.007765c-156.393968 92.955961-517.161376 30.678197-714.81223-123.412347a17.062401 17.062401 0 0 0-20.986753 26.924469c141.327868 110.171924 355.734 174.480113 532.739348 174.480113 86.847621 0 164.72042-15.49266 220.480347-48.644905a17.062401 17.062401 0 0 0-17.420712-29.34733M162.6842 762.262768a17.062401 17.062401 0 1 0 26.29316-21.754562C6.98979 520.556794 4.532805 185.382988 82.746851 60.230276a17.062401 17.062401 0 1 0-28.937832-18.086145C8.150034 115.205332-9.987299 238.702991 5.3518 372.50634c17.096526 149.364259 72.975889 287.774456 157.3324 389.756428M153.487566 83.042706c155.301975-100.275731 520.334983-40.710889 723.275181 118.088878a16.994151 16.994151 0 0 0 23.938549-2.934733 17.062401 17.062401 0 0 0-2.917671-23.955611C685.356732 8.053453 300.377777-52.483946 134.957798 54.394935a17.045339 17.045339 0 1 0 18.529768 28.647771" fill="#231F1F" p-id="10557"></path><path d="M776.435829 207.069299c-203.076697-118.464251-446.659535-117.304007-566.659402 2.678797-131.209864 131.192802-69.716971 388.732683 72.890577 531.357294a17.079463 17.079463 0 0 0 24.143298-24.126235c-145.508156-145.491094-180.247205-375.765259-72.90764-483.104824 107.578439-107.561376 338.364476-106.418195 525.334267 2.678797a17.062401 17.062401 0 0 0 17.1989-29.483829" fill="#231F1F" p-id="10558"></path><path d="M240.71056 794.305957a17.028276 17.028276 0 0 0 7.626893 22.88068c92.478214 46.239107 211.727335 73.948446 320.653704 73.948446 99.968608 0 191.252454-23.358427 245.033141-77.139115 131.192802-131.192802 69.716971-388.732683-72.890577-531.357294a17.045339 17.045339 0 1 0-24.126235 24.126235c145.491094 145.491094 180.230142 375.765259 72.890577 483.104824-99.183737 99.166675-359.675414 80.125035-526.306823-3.207732a17.062401 17.062401 0 0 0-22.88068 7.643956" fill="#231F1F" p-id="10559"></path><path d="M443.992006 764.463817a17.045339 17.045339 0 0 0 13.376923 20.065384c17.813147 3.583104 36.069916 5.289344 54.377872 5.289344 74.699192 0 150.370941-28.647771 199.903091-78.196984 75.432875-75.432875 80.483346-233.208898-42.911939-356.58712-22.044622-22.044622-66.44099-42.553628-103.261651-47.740598a16.891777 16.891777 0 0 0-19.280513 14.520104 17.028276 17.028276 0 0 0 14.503041 19.26345c31.889628 4.487411 69.136849 23.30724 83.912888 38.083279 84.817196 84.800133 122.286228 228.943298 42.911939 308.33465-53.115255 53.115255-145.047471 79.30604-223.466267 63.591569a17.045339 17.045339 0 0 0-20.065384 13.376922" fill="#231F1F" p-id="10560"></path><path d="M566.431796 239.214863c-88.980422-17.813147-193.538815 12.165492-254.280963 72.90764-75.432875 75.432875-80.483346 233.208898 42.911939 356.58712 21.856936 21.873998 68.283729 43.304374 103.500525 47.774723a17.062401 17.062401 0 0 0 4.299725-33.851804c-29.910389-3.804915-68.846788-23.221928-83.674015-38.049155-84.817196-84.800133-122.286228-228.943298-42.911939-308.334649 53.132317-53.115255 145.013347-79.237791 223.466267-63.591569a17.113588 17.113588 0 0 0 20.082446-13.376922 17.062401 17.062401 0 0 0-13.393985-20.065384" fill="#231F1F" p-id="10561"></path><path d="M551.024448 438.623144C583.835446 471.417079 597.212368 502.726585 597.212368 546.645205a17.062401 17.062401 0 1 0 34.124802 0c0-52.552195-17.335399-93.297209-56.186487-132.148296-29.193768-29.193768-68.386103-42.911939-110.376672-38.834025-42.656003 4.231475-82.343148 26.65147-103.568775 58.489911a17.062401 17.062401 0 1 0 28.391836 18.939265c15.475598-23.221928 46.307356-40.267267 78.538232-43.457935 31.633692-3.173607 61.066333 7.166208 82.889144 28.989019" fill="#231F1F" p-id="10562"></path><path d="M561.603137 655.110889c33.015746 0 63.284446-10.288628 81.797151-28.801333a17.045339 17.045339 0 1 0-24.126235-24.126235c-25.457102 25.44004-99.849171 29.586203-146.497776-17.062401-29.330267-29.330267-29.262018-53.917187-29.142581-98.518304L443.650758 477.74723a17.062401 17.062401 0 1 0-34.124802 0l-0.017062 8.753012c-0.136499 46.580355-0.238874 83.383954 39.141148 122.746913 31.667816 31.684879 74.204382 45.863734 112.953095 45.863734M938.460389 68.249604h17.062401v17.062401a17.062401 17.062401 0 1 0 34.124803 0V68.249604h17.062401a17.062401 17.062401 0 1 0 0-34.124802h-17.062401V17.062401a17.062401 17.062401 0 1 0-34.124803 0v17.062401h-17.062401a17.062401 17.062401 0 1 0 0 34.124802M938.972261 238.873615h-0.187686a16.994151 16.994151 0 0 0-16.960027 17.062401c0 9.418445 7.729268 17.062401 17.147713 17.062401a17.062401 17.062401 0 0 0 0-34.124802M904.847459 853.120053h-0.187686a16.994151 16.994151 0 0 0-16.960027 17.062401c0 9.418445 7.712205 17.062401 17.147713 17.062401a17.062401 17.062401 0 0 0 0-34.124802M188.226614 989.619262h-0.170624a16.994151 16.994151 0 0 0-16.977089 17.062401c0 9.418445 7.729268 17.062401 17.147713 17.062401a17.062401 17.062401 0 0 0 0-34.124802M17.602604 921.369658h-0.187687a16.994151 16.994151 0 0 0-16.960026 17.062401c0 9.418445 7.712205 17.062401 17.147713 17.062401a17.062401 17.062401 0 0 0 0-34.124802M375.913026 85.312005a17.062401 17.062401 0 0 0-17.062401-17.062401h-0.187686a16.994151 16.994151 0 0 0-16.960027 17.062401c0 9.418445 7.712205 17.062401 17.147713 17.062401a17.062401 17.062401 0 0 0 17.062401-17.062401M68.277935 716.620845a17.062401 17.062401 0 1 0-34.124802 0 17.062401 17.062401 0 1 0 0 34.124802 17.062401 17.062401 0 1 0 34.124802 0 17.062401 17.062401 0 1 0 0-34.124802" fill="#231F1F" p-id="10563"></path></svg>